<svg xmlns="http://www.w3.org/2000/svg" xmlns:xlink="http://www.w3.org/1999/xlink" width="2000" zoomAndPan="magnify" viewBox="0 0 1500 1499.999933" height="2000" preserveAspectRatio="xMidYMid meet" version="1.0"><defs><g/><clipPath id="615bdd588b"><path d="M 315 95.6875 L 1151.6875 95.6875 L 1151.6875 1139.664062 L 315 1139.664062 Z M 315 95.6875 " clip-rule="nonzero"/></clipPath><clipPath id="c34cd2670f"><rect x="0" width="1155" y="0" height="1422"/></clipPath></defs><g transform="matrix(1, 0, 0, 1, 163, 78)"><g clip-path="url(#c34cd2670f)"><g clip-path="url(#615bdd588b)"><path fill="#ffd51e" d="M 618.058594 762.132812 C 652.738281 796.816406 669.957031 838.527344 669.957031 887.515625 C 669.957031 936.507812 652.738281 978.460938 618.058594 1012.898438 C 583.375 1047.582031 541.664062 1064.800781 492.675781 1064.800781 C 443.683594 1064.800781 401.730469 1047.582031 367.289062 1012.898438 C 332.367188 978.460938 315.148438 936.75 315.148438 887.515625 C 315.148438 838.527344 332.367188 796.570312 367.046875 762.132812 C 401.730469 727.453125 443.441406 710.234375 492.429688 710.234375 C 541.664062 710.234375 583.375 727.453125 618.058594 762.132812 Z M 1005.847656 578.546875 C 1046.105469 518.886719 1066.960938 453.40625 1066.960938 390.835938 C 1066.960938 244.839844 959.527344 98.597656 761.386719 95.6875 L 315.632812 95.6875 L 315.632812 631.902344 C 367.046875 595.523438 425.980469 577.332031 492.675781 577.332031 C 578.527344 577.332031 651.523438 607.648438 712.15625 668.277344 C 772.785156 728.910156 803.101562 802.148438 803.101562 887.757812 C 803.101562 973.613281 772.785156 1046.609375 712.15625 1107.242188 C 700.515625 1118.882812 688.144531 1129.550781 675.535156 1139.011719 L 854.03125 1139.011719 C 1050.714844 1139.011719 1152.085938 994.46875 1152.085938 847.015625 C 1151.84375 748.554688 1104.066406 645.722656 1005.847656 578.546875 Z M 1005.847656 578.546875 " fill-opacity="1" fill-rule="nonzero"/></g><g fill="#004aad" fill-opacity="1"><g transform="translate(0.972343, 1246.61748)"><g><path d="M 813.671875 -621.3125 C 880.097656 -548.4375 913.3125 -459.414062 913.3125 -354.25 C 913.3125 -249.082031 880.097656 -160.289062 813.671875 -87.875 C 747.253906 -15.457031 662.84375 20.75 560.4375 20.75 C 466.34375 20.75 388.847656 -12.921875 327.953125 -80.265625 L 325.1875 -80.265625 L 325.1875 0 L 83.03125 0 L 83.03125 -1190.0625 L 327.953125 -1190.0625 L 327.953125 -642.078125 C 388.847656 -701.117188 466.34375 -730.640625 560.4375 -730.640625 C 662.84375 -730.640625 747.253906 -694.195312 813.671875 -621.3125 Z M 607.484375 -234.546875 C 637.929688 -265.453125 653.15625 -305.351562 653.15625 -354.25 C 653.15625 -403.144531 637.238281 -443.273438 605.40625 -474.640625 C 573.582031 -506.003906 534.144531 -521.6875 487.09375 -521.6875 C 440.96875 -521.6875 401.988281 -506.003906 370.15625 -474.640625 C 338.332031 -443.273438 322.421875 -403.144531 322.421875 -354.25 C 322.421875 -306.28125 337.875 -266.613281 368.78125 -235.25 C 399.6875 -203.882812 439.125 -188.203125 487.09375 -188.203125 C 536.914062 -188.203125 577.046875 -203.648438 607.484375 -234.546875 Z M 607.484375 -234.546875"/></g></g></g></g></g></svg>
