<svg xmlns="http://www.w3.org/2000/svg" xmlns:xlink="http://www.w3.org/1999/xlink" width="2000" zoomAndPan="magnify" viewBox="0 0 1500 1499.999933" height="2000" preserveAspectRatio="xMidYMid meet" version="1.0"><defs><g/><clipPath id="65c5cb3b4b"><path d="M 478 173.6875 L 1314.984375 173.6875 L 1314.984375 1216.9375 L 478 1216.9375 Z M 478 173.6875 " clip-rule="nonzero"/></clipPath><clipPath id="a23b75cad5"><rect x="0" width="931" y="0" height="1422"/></clipPath></defs><g clip-path="url(#65c5cb3b4b)"><path fill="#004aad" d="M 781.0625 840.148438 C 815.742188 874.828125 832.960938 916.542969 832.960938 965.53125 C 832.960938 1014.523438 815.742188 1056.480469 781.0625 1090.917969 C 746.378906 1125.601562 704.667969 1142.820312 655.675781 1142.820312 C 606.6875 1142.820312 564.730469 1125.601562 530.289062 1090.917969 C 495.367188 1056.480469 478.148438 1014.765625 478.148438 965.53125 C 478.148438 916.542969 495.367188 874.585938 530.046875 840.148438 C 564.730469 805.464844 606.445312 788.246094 655.433594 788.246094 C 704.667969 788.246094 746.378906 805.464844 781.0625 840.148438 Z M 1168.859375 656.554688 C 1209.117188 596.894531 1229.976562 531.414062 1229.976562 468.839844 C 1229.976562 322.839844 1122.539062 176.597656 924.394531 173.6875 L 478.632812 173.6875 L 478.632812 709.910156 C 530.046875 673.53125 588.980469 655.34375 655.675781 655.34375 C 741.53125 655.34375 814.53125 685.660156 875.160156 746.289062 C 935.792969 806.921875 966.109375 880.164062 966.109375 965.777344 C 966.109375 1051.628906 935.792969 1124.628906 875.160156 1185.261719 C 863.519531 1196.902344 851.152344 1207.574219 838.539062 1217.03125 L 1017.039062 1217.03125 C 1213.726562 1217.03125 1315.101562 1072.488281 1315.101562 925.03125 C 1314.859375 826.566406 1267.082031 723.734375 1168.859375 656.554688 Z M 1168.859375 656.554688 " fill-opacity="1" fill-rule="nonzero"/></g><g transform="matrix(1, 0, 0, 1, 163, 78)"><g clip-path="url(#a23b75cad5)"><g fill="#ffd51e" fill-opacity="1"><g transform="translate(0.972343, 1246.617379)"><g><path d="M 813.671875 -621.3125 C 880.097656 -548.4375 913.3125 -459.414062 913.3125 -354.25 C 913.3125 -249.082031 880.097656 -160.289062 813.671875 -87.875 C 747.253906 -15.457031 662.84375 20.75 560.4375 20.75 C 466.34375 20.75 388.847656 -12.921875 327.953125 -80.265625 L 325.1875 -80.265625 L 325.1875 0 L 83.03125 0 L 83.03125 -1190.0625 L 327.953125 -1190.0625 L 327.953125 -642.078125 C 388.847656 -701.117188 466.34375 -730.640625 560.4375 -730.640625 C 662.84375 -730.640625 747.253906 -694.195312 813.671875 -621.3125 Z M 607.484375 -234.546875 C 637.929688 -265.453125 653.15625 -305.351562 653.15625 -354.25 C 653.15625 -403.144531 637.238281 -443.273438 605.40625 -474.640625 C 573.582031 -506.003906 534.144531 -521.6875 487.09375 -521.6875 C 440.96875 -521.6875 401.988281 -506.003906 370.15625 -474.640625 C 338.332031 -443.273438 322.421875 -403.144531 322.421875 -354.25 C 322.421875 -306.28125 337.875 -266.613281 368.78125 -235.25 C 399.6875 -203.882812 439.125 -188.203125 487.09375 -188.203125 C 536.914062 -188.203125 577.046875 -203.648438 607.484375 -234.546875 Z M 607.484375 -234.546875 "/></g></g></g></g></g></svg>